<svg xmlns="http://www.w3.org/2000/svg" fill="none" viewBox="0 0 32 32"><rect width="32" height="32" rx="8" fill="url(#g)"/><path d="M16 8a1 1 0 0 1 .9.56l3.08 6.24 6.88 1a1 1 0 0 1 .56 1.7l-4.98 4.86 1.18 6.86a1 1 0 0 1-1.46 1.06L16 26.94l-6.16 3.24a1 1 0 0 1-1.46-1.06l1.18-6.86-4.98-4.86a1 1 0 0 1 .56-1.7l6.88-1 3.08-6.24A1 1 0 0 1 16 8z" fill="#fff" opacity=".9"/><defs><linearGradient id="g" x1="0" y1="0" x2="32" y2="32"><stop stop-color="#6366f1"/><stop offset="1" stop-color="#06b6d4"/></linearGradient></defs></svg>
